# xmcd CD database file
#
# Track frame offsets:
#	150
#	10150
#	18604
#	27977
#	40447
#	47435
#	53594
#	60777
#	66984
#	75668
#	81604
#	87359
#	93437
#	102180
#
# Disc length: 1458 seconds
#
# Revision: 0
# Processed by: cddbd v1.5.2PL0 Copyright (c) Steve Scherf et al.
# Submitted via: jetAudio 7
#
DISCID=a905b00e
DTITLE=Nelson Jenstad - Robin Hood Lanes
DYEAR=1900
DGENRE=Blues
TTITLE0=Rain Cycle
TTITLE1=Rain Sprite
TTITLE2=Always Love
TTITLE3=Spin Down
TTITLE4=Lefty
TTITLE5=Lucky Lanes
TTITLE6=Snow Clouds
TTITLE7=Snow Walking
TTITLE8=Alterama
TTITLE9=Ludwig
TTITLE10=Gratzi
TTITLE11=Sea Train
TTITLE12=Thursday
TTITLE13=To Ribbons
EXTD=
EXTT0=
EXTT1=
EXTT2=
EXTT3=
EXTT4=
EXTT5=
EXTT6=
EXTT7=
EXTT8=
EXTT9=
EXTT10=
EXTT11=
EXTT12=
EXTT13=
PLAYORDER=
